<svg width="20" height="20" viewBox="0 0 20 20" fill="none" xmlns="http://www.w3.org/2000/svg">
<path d="M10 0C8.02219 0 6.08879 0.58649 4.4443 1.6853C2.79981 2.78412 1.51809 4.3459 0.761209 6.17316C0.00433281 8.00043 -0.1937 10.0111 0.192152 11.9509C0.578004 13.8907 1.53041 15.6725 2.92894 17.0711C4.32746 18.4696 6.10929 19.422 8.0491 19.8078C9.98891 20.1937 11.9996 19.9957 13.8268 19.2388C15.6541 18.4819 17.2159 17.2002 18.3147 15.5557C19.4135 13.9112 20 11.9778 20 10C20 7.34783 18.9464 4.8043 17.0711 2.92893C15.1957 1.05357 12.6522 0 10 0V0ZM10 3C10.5933 3 11.1734 3.17595 11.6667 3.50559C12.1601 3.83523 12.5446 4.30377 12.7716 4.85195C12.9987 5.40013 13.0581 6.00333 12.9424 6.58527C12.8266 7.16721 12.5409 7.70176 12.1213 8.12132C11.7018 8.54088 11.1672 8.8266 10.5853 8.94235C10.0033 9.05811 9.40013 8.9987 8.85195 8.77164C8.30378 8.54457 7.83524 8.16006 7.50559 7.66671C7.17595 7.17336 7 6.59334 7 6C7 5.20435 7.31607 4.44129 7.87868 3.87868C8.44129 3.31607 9.20435 3 10 3V3ZM10 17.2C8.81186 17.2 7.64219 16.906 6.59528 16.3441C5.54838 15.7823 4.65678 14.9701 4 13.98C4.03 11.99 8 10.9 10 10.9C12 10.9 15.97 11.99 16 13.98C15.3432 14.9701 14.4516 15.7823 13.4047 16.3441C12.3578 16.906 11.1881 17.2 10 17.2V17.2Z" fill="#BFBFBF"/>
</svg>
