<svg width="20" height="20" viewBox="0 0 20 20" fill="none" xmlns="http://www.w3.org/2000/svg">
<path d="M11.8918 10.0007L17.6045 4.2849C17.8557 4.03401 17.9968 3.69367 17.997 3.33874C17.9971 2.98381 17.8562 2.64337 17.6052 2.3923C17.3542 2.14124 17.0137 2.00013 16.6586 2C16.3036 1.99988 15.963 2.14075 15.7118 2.39164L9.99916 8.10474L4.28516 2.3943C4.03435 2.14359 3.69419 2.00274 3.33949 2.00274C2.9848 2.00274 2.64463 2.14359 2.39382 2.3943C2.14302 2.64501 2.00211 2.98504 2.00211 3.3396C2.00211 3.69416 2.14302 4.03419 2.39382 4.2849L8.10649 9.998L2.39382 15.7111C2.14213 15.9618 2.00038 16.3022 1.99976 16.6574C1.99913 17.0126 2.13968 17.3534 2.39049 17.605C2.6413 17.8566 2.98182 17.9983 3.33714 17.9989C3.69246 17.9996 4.03347 17.8591 4.28516 17.6084L9.99783 11.8953L15.7118 17.6084C15.8362 17.7326 15.9838 17.8311 16.1463 17.8983C16.3087 17.9655 16.4828 18.0001 16.6586 18C16.8345 17.9999 17.0085 17.9653 17.1709 17.898C17.3333 17.8306 17.4809 17.732 17.6052 17.6077C17.7294 17.4834 17.828 17.3358 17.8952 17.1734C17.9625 17.011 17.997 16.837 17.997 16.6613C17.9969 16.4855 17.9622 16.3115 17.8949 16.1492C17.8275 15.9868 17.7289 15.8393 17.6045 15.7151L11.8918 10.0007Z" fill="#595959"/>
</svg>
