<svg width="58" height="20" viewBox="0 0 58 20" fill="none" xmlns="http://www.w3.org/2000/svg">
<path d="M2 3.71429C2 3.25963 2.18061 2.82359 2.5021 2.5021C2.82359 2.18061 3.25963 2 3.71429 2H7.14286C7.59751 2 8.03355 2.18061 8.35504 2.5021C8.67653 2.82359 8.85714 3.25963 8.85714 3.71429V7.14286C8.85714 7.59751 8.67653 8.03355 8.35504 8.35504C8.03355 8.67653 7.59751 8.85714 7.14286 8.85714H3.71429C3.25963 8.85714 2.82359 8.67653 2.5021 8.35504C2.18061 8.03355 2 7.59751 2 7.14286V3.71429ZM11.1429 3.71429C11.1429 3.25963 11.3235 2.82359 11.645 2.5021C11.9665 2.18061 12.4025 2 12.8571 2H16.2857C16.7404 2 17.1764 2.18061 17.4979 2.5021C17.8194 2.82359 18 3.25963 18 3.71429V7.14286C18 7.59751 17.8194 8.03355 17.4979 8.35504C17.1764 8.67653 16.7404 8.85714 16.2857 8.85714H12.8571C12.4025 8.85714 11.9665 8.67653 11.645 8.35504C11.3235 8.03355 11.1429 7.59751 11.1429 7.14286V3.71429ZM2 12.8571C2 12.4025 2.18061 11.9665 2.5021 11.645C2.82359 11.3235 3.25963 11.1429 3.71429 11.1429H7.14286C7.59751 11.1429 8.03355 11.3235 8.35504 11.645C8.67653 11.9665 8.85714 12.4025 8.85714 12.8571V16.2857C8.85714 16.7404 8.67653 17.1764 8.35504 17.4979C8.03355 17.8194 7.59751 18 7.14286 18H3.71429C3.25963 18 2.82359 17.8194 2.5021 17.4979C2.18061 17.1764 2 16.7404 2 16.2857V12.8571ZM11.1429 12.8571C11.1429 12.4025 11.3235 11.9665 11.645 11.645C11.9665 11.3235 12.4025 11.1429 12.8571 11.1429H16.2857C16.7404 11.1429 17.1764 11.3235 17.4979 11.645C17.8194 11.9665 18 12.4025 18 12.8571V16.2857C18 16.7404 17.8194 17.1764 17.4979 17.4979C17.1764 17.8194 16.7404 18 16.2857 18H12.8571C12.4025 18 11.9665 17.8194 11.645 17.4979C11.3235 17.1764 11.1429 16.7404 11.1429 16.2857V12.8571Z" fill="#595959"/>
<path d="M24.72 5.024V6.096H30.16V5.024H27.504L28.048 4.816C27.888 4.24 27.648 3.584 27.344 2.88L26.24 3.184C26.528 3.76 26.8 4.384 27.024 5.024H24.72ZM25.376 7.376V8.384H29.504V7.376H25.376ZM25.376 9.6V10.608H29.504V9.6H25.376ZM29.632 11.968H25.232V17.504H26.32V16.56H29.632V11.968ZM26.32 15.536V12.992H28.544V15.536H26.32ZM30.928 3.6V9.68H34V11.232H30.288V12.32H33.072C32.368 13.84 31.232 15.088 29.696 16.08L30.288 17.072C32 15.824 33.232 14.24 33.968 12.32H34V17.648H35.12V12.32H35.2C35.856 14.048 37.008 15.632 38.656 17.072L39.408 16.144C37.84 15.024 36.736 13.744 36.064 12.32H38.896V11.232H35.12V9.68H38.192V3.6H30.928ZM37.12 8.672H35.12V7.12H37.12V8.672ZM34 8.672H32.016V7.12H34V8.672ZM32.016 6.176V4.624H34V6.176H32.016ZM35.12 4.624H37.12V6.176H35.12V4.624ZM40.944 7.328V8.4H43.152C42.64 10.224 41.792 11.856 40.592 13.28L41.104 14.56C42 13.296 42.736 11.888 43.28 10.352V17.536H44.368V10.32C44.816 10.912 45.376 11.712 46.016 12.704L46.656 11.744C45.888 10.848 45.12 10.016 44.368 9.28V8.4H46.448V7.328H44.368V4.8C45.184 4.64 45.952 4.448 46.656 4.256L46.256 3.168C44.704 3.664 42.928 4 40.912 4.176L41.136 5.264C41.872 5.184 42.592 5.088 43.28 4.992V7.328H40.944ZM46.976 12.704V13.744H50.24V15.968H46.336V17.008H55.264V15.968H51.36V13.744H54.688V12.704H51.36V10.608C52.56 10.48 53.68 10.32 54.72 10.128L54.368 9.152C52.16 9.552 49.632 9.824 46.784 9.968L46.992 10.992C48.112 10.912 49.2 10.832 50.24 10.736V12.704H46.976ZM47.536 3.52V8.144H54.176V3.52H47.536ZM53.056 7.104H48.656V4.544H53.056V7.104Z" fill="#595959"/>
</svg>
