<svg width="18" height="20" viewBox="0 0 18 20" fill="none" xmlns="http://www.w3.org/2000/svg">
<path d="M15.3862 8.47625H14.4775V5.75C14.4775 4.22501 13.8717 2.76247 12.7934 1.68414C11.715 0.605802 10.2525 0 8.7275 0C7.20251 0 5.73997 0.605802 4.66164 1.68414C3.5833 2.76247 2.9775 4.22501 2.9775 5.75V8.475H2.06625C1.82763 8.475 1.59135 8.52202 1.37091 8.61337C1.15047 8.70473 0.950196 8.83862 0.781526 9.00741C0.612855 9.1762 0.479097 9.37656 0.387895 9.59707C0.296694 9.81757 0.249836 10.0539 0.25 10.2925V17.5575C0.249836 17.7961 0.296694 18.0324 0.387895 18.2529C0.479097 18.4734 0.612855 18.6738 0.781526 18.8426C0.950196 19.0114 1.15047 19.1453 1.37091 19.2366C1.59135 19.328 1.82763 19.375 2.06625 19.375H15.3862C15.8679 19.375 16.3299 19.1836 16.6705 18.843C17.0111 18.5024 17.2025 18.0404 17.2025 17.5588V10.2925C17.2025 9.8108 17.0111 9.34883 16.6705 9.00822C16.3299 8.6676 15.8679 8.47625 15.3862 8.47625ZM11.4512 8.47625H6V5.75C5.99223 5.38732 6.05696 5.02674 6.19038 4.6894C6.3238 4.35207 6.52323 4.04476 6.77699 3.78552C7.03074 3.52627 7.3337 3.3203 7.6681 3.17969C8.0025 3.03907 8.36161 2.96664 8.72437 2.96664C9.08714 2.96664 9.44625 3.03907 9.78065 3.17969C10.1151 3.3203 10.418 3.52627 10.6718 3.78552C10.9255 4.04476 11.1249 4.35207 11.2584 4.6894C11.3918 5.02674 11.4565 5.38732 11.4487 5.75L11.4512 8.47625Z" fill="#BFBFBF"/>
</svg>
