<svg width="53" height="126" viewBox="0 0 53 126" fill="none" xmlns="http://www.w3.org/2000/svg">
<path d="M-121.331 97.6115L-162.225 27.2852C-165.91 20.9941 -168.311 14.0356 -169.292 6.81139C-170.272 -0.412861 -169.812 -7.75977 -167.938 -14.8052C-166.064 -21.8507 -162.813 -28.4551 -158.372 -34.2373C-153.932 -40.0195 -148.39 -44.8649 -142.067 -48.4938L-71.7357 -88.8081C-58.8926 -96.1167 -43.6827 -98.0572 -29.416 -94.2072C-15.1492 -90.3572 -2.98042 -81.0283 4.44226 -68.2508L45.3365 2.07549C49.021 8.36694 51.4228 15.3259 52.4031 22.5507C53.3835 29.7754 52.923 37.1228 51.0483 44.1686C49.1736 51.2144 45.9218 57.8191 41.4807 63.6013C37.0395 69.3835 31.497 74.2287 25.1731 77.8572L-45.1532 118.169C-57.9963 125.477 -73.2062 127.418 -87.473 123.568C-101.74 119.718 -113.909 110.389 -121.331 97.6115V97.6115Z" fill="#E7F0F5"/>
</svg>
