<svg width="27" height="227" viewBox="0 0 27 227" fill="none" xmlns="http://www.w3.org/2000/svg">
<path opacity="0.2" d="M52.9195 27.7678L52.9218 27.7638C56.1987 22.006 60.5836 16.9543 65.8234 12.9004C71.0632 8.84641 77.054 5.87046 83.4502 4.14429C89.8463 2.41813 96.521 1.97595 103.089 2.84328C109.657 3.71057 115.987 5.87011 121.716 9.1972C121.716 9.19733 121.716 9.19746 121.717 9.19759L198.073 53.5993C209.666 60.388 218.109 71.4811 221.563 84.4639C225.017 97.4467 223.203 111.268 216.516 122.92L216.515 122.921L172.428 199.832L172.425 199.836C169.149 205.594 164.764 210.646 159.524 214.7C154.284 218.754 148.293 221.73 141.897 223.456C135.501 225.182 128.826 225.624 122.258 224.757C115.691 223.89 109.36 221.73 103.631 218.403C103.631 218.403 103.631 218.403 103.631 218.403L27.2732 174C27.2725 174 27.2718 174 27.2712 173.999C15.6793 167.21 7.23799 156.118 3.78438 143.136C0.330575 130.153 2.14466 116.331 8.83178 104.679L7.53081 103.933L8.83216 104.679L52.9195 27.7678Z" stroke="#178FAC" stroke-width="3"/>
</svg>
