<svg width="37" height="179" viewBox="0 0 37 179" fill="none" xmlns="http://www.w3.org/2000/svg">
<path opacity="0.2" d="M48.6691 194.612L7.77483 124.286C4.09057 117.995 1.68887 111.036 0.708387 103.812C-0.272093 96.5876 0.188061 89.2407 2.06228 82.1953C3.9365 75.1498 7.18767 68.5454 11.6281 62.7632C16.0685 56.981 21.6103 52.1356 27.9334 48.5067L98.2645 8.19239C111.108 0.883744 126.318 -1.05672 140.584 2.79328C154.851 6.64328 167.02 15.9722 174.443 28.7497L215.337 99.076C219.021 105.367 221.423 112.326 222.403 119.551C223.384 126.776 222.923 134.123 221.049 141.169C219.174 148.215 215.922 154.82 211.481 160.602C207.04 166.384 201.497 171.229 195.173 174.858L124.847 215.169C112.004 222.478 96.794 224.418 82.5273 220.568C68.2606 216.718 56.0917 207.39 48.6691 194.612V194.612Z" fill="#FFA81D"/>
</svg>
