<svg width="30" height="270" viewBox="0 0 30 270" fill="none" xmlns="http://www.w3.org/2000/svg">
<path opacity="0.2" d="M-260.149 106.129L-260.149 106.13C-269.176 121.859 -271.625 140.518 -266.963 158.044C-262.301 175.57 -250.905 190.545 -235.256 199.709C-235.255 199.71 -235.255 199.71 -235.254 199.711L-132.937 259.208C-132.937 259.208 -132.937 259.208 -132.937 259.209C-125.202 263.701 -116.655 266.616 -107.788 267.787C-98.9201 268.958 -89.9085 268.361 -81.273 266.031C-72.6375 263.7 -64.5492 259.682 -57.4749 254.209C-50.4005 248.736 -44.4804 241.915 -40.0562 234.142L-40.0539 234.138L19.0214 131.08L19.0218 131.08C28.0489 115.35 30.4976 96.6913 25.8348 79.165C21.1725 61.6401 9.77733 46.666 -5.87069 37.5013C-5.87201 37.5006 -5.8733 37.4998 -5.87462 37.499M-260.149 106.129L-5.11664 36.2046L-5.87462 37.499M-260.149 106.129L-201.074 3.07248L-201.072 3.06846C-196.647 -4.70517 -190.727 -11.5255 -183.653 -16.9988C-176.579 -22.4721 -168.49 -26.49 -159.855 -28.8206C-151.219 -31.1511 -142.208 -31.7481 -133.34 -30.5771C-124.473 -29.4061 -115.926 -26.4905 -108.191 -21.9984L-260.149 106.129ZM-5.87462 37.499L-108.191 -21.998L-5.87462 37.499Z" stroke="#FFA81D" stroke-width="3"/>
</svg>
