<svg width="120" height="18" viewBox="0 0 120 18" fill="none" xmlns="http://www.w3.org/2000/svg">
<path d="M109.137 0.0616829C105.992 0.845058 104.299 2.19434 103.442 4.63818C102.92 6.89032 102.794 9.21645 103.07 11.5119C103.685 15.7412 106.607 18 111.464 18C116.321 18 119.243 15.7388 119.857 11.5119C120.134 9.21645 120.008 6.89032 119.485 4.63818C119.13 3.64095 118.549 2.73989 117.787 2.00599C117.025 1.27209 116.103 0.725373 115.094 0.408917C113.132 0.0311547 111.129 -0.0856001 109.137 0.0616829V0.0616829ZM113.771 3.30572C114.687 3.68092 115.426 4.39156 115.838 5.293C116.156 6.59863 116.238 7.95107 116.078 9.28556C116.021 12.4215 116.021 12.4755 115.5 13.2048C115.143 13.6725 114.701 14.0683 114.197 14.3715C113.509 14.7548 113.192 14.8088 111.438 14.8088C109.576 14.8088 109.428 14.7728 108.572 14.2622C108.017 13.9355 107.555 13.4707 107.232 12.9129C106.841 12.1655 106.803 11.9096 106.803 8.9936C106.803 6.11001 106.841 5.80363 107.232 5.0551C107.518 4.54399 107.91 4.10039 108.382 3.7544C108.854 3.4084 109.395 3.16811 109.968 3.0498C111.239 2.86287 112.535 2.95055 113.769 3.30693L113.771 3.30572Z" fill="black"/>
<path d="M26.521 0.268164C25.6283 0.436373 25.2011 2.00072 25.8143 2.87661C26.1031 3.15407 26.4657 3.34215 26.8586 3.41824C27.2516 3.49433 27.6581 3.4552 28.0293 3.30554C28.3609 3.23815 28.6539 3.04587 28.8479 2.7684C29.042 2.49094 29.1222 2.14947 29.0721 1.81448C29.1228 1.49516 29.054 1.16833 28.8788 0.896695C28.7036 0.625064 28.4345 0.427764 28.1229 0.342652C27.6127 0.137398 27.0481 0.111146 26.521 0.268164V0.268164Z" fill="#178FAC"/>
<path d="M44.2008 0.466383C43.1081 0.723031 42.1166 1.30034 41.3534 2.12444C40.6634 2.9613 40.2304 3.98041 40.1067 5.05849C40.2026 6.23638 40.7254 7.33849 41.5766 8.15715C42.4321 8.9982 43.1581 9.34183 46.3763 10.5265C48.349 11.2558 49.0377 11.8566 49.0377 12.8958C49.0377 14.9384 45.7979 15.7386 42.7105 14.4446C40.4582 13.5146 39.7323 13.6612 39.7323 15.0093C39.7323 16.1026 40.0299 16.522 41.1278 17.0146C44.5524 18.5453 49.3533 18.0719 51.4748 15.9945C52.1671 15.3333 52.6374 14.4732 52.8208 13.5329C53.0041 12.5927 52.8914 11.6186 52.4983 10.7452C51.7916 9.41512 50.7488 8.73988 47.5858 7.59245C45.2412 6.73578 44.4588 6.29844 44.0868 5.56913C42.9697 3.4545 46.4507 2.07038 49.5393 3.41846C50.6 3.87382 51.326 3.92909 51.7544 3.58306C52.2199 3.19979 52.0148 1.65106 51.4376 1.21371C50.1933 0.265735 46.1171 -0.153588 44.2008 0.466383Z" fill="black"/>
<path d="M64.0608 0.411132L63.6324 0.703091V17.5817L64.098 17.7823C64.9123 18.0683 65.8006 18.062 66.6107 17.7643L67.0762 17.524L67.1698 13.5867L67.2634 9.6314L70.52 13.624C74.1114 18.0346 74.205 18.1079 76.0661 17.9626C77.146 17.8712 77.626 17.5252 77.4616 16.9413C77.4244 16.7767 75.8801 14.8267 74.037 12.6159C72.2131 10.41 70.706 8.53083 70.706 8.44192C71.6304 7.34002 72.6116 6.28728 73.6458 5.288C76.474 2.38999 77.5912 1.13203 77.5912 0.84247C77.5346 0.676809 77.4312 0.531138 77.2936 0.42314C76.2234 0.0563235 75.066 0.0307216 73.9806 0.349853C72.7135 1.4489 71.5257 2.63655 70.4264 3.90387C68.7333 5.72654 67.2622 7.23922 67.1698 7.23922C66.967 6.16412 66.9045 5.06719 66.9838 3.97596C66.9838 0.257335 67.003 0.293382 65.4395 0.184046C64.9677 0.0874123 64.4769 0.16826 64.0608 0.411132Z" fill="black"/>
<path d="M88.9376 0.519273L88.4576 0.879726V9.15442C88.4576 15.6978 88.5141 17.4447 88.6976 17.5937C89.0663 17.792 89.4735 17.9076 89.8912 17.9327C90.3089 17.9578 90.727 17.8918 91.1167 17.7391L91.8054 17.4652V0.884529L91.3255 0.524077C90.979 0.272978 90.5617 0.138748 90.1339 0.1408C89.7051 0.136243 89.286 0.268834 88.9376 0.519273V0.519273Z" fill="black"/>
<path d="M0.357826 0.503378C0.11784 0.648759 0.0782437 1.81541 0.023047 8.81171C-0.0333496 18.3035 -0.125745 17.8121 1.64175 17.8121C3.32165 17.8121 3.33485 17.758 3.33485 14.0046C3.28553 12.8351 3.34781 11.6635 3.52084 10.5058C3.70682 10.1778 3.94921 10.1598 6.85184 10.1598C9.53127 10.1598 10.034 10.1958 10.2392 10.4698C10.4444 10.6884 10.5188 11.5992 10.556 14.0586C10.6124 17.8482 10.6124 17.8121 12.1939 17.8121C13.8498 17.8121 13.7538 18.3768 13.7538 9.06643C13.7538 1.8875 13.7166 0.867435 13.4562 0.612718C13.0418 0.428975 12.5949 0.329564 12.1417 0.320283C11.6885 0.311001 11.238 0.392025 10.8164 0.558644C10.6127 1.59617 10.5254 2.65323 10.556 3.71017C10.5188 5.85964 10.4252 6.7139 10.2392 6.93497C10.034 7.20771 9.53247 7.24496 6.85184 7.24496C3.94921 7.24496 3.70682 7.22694 3.52084 6.89893C3.35101 5.84507 3.28869 4.77665 3.33485 3.71017C3.33485 0.376018 3.31565 0.32075 1.69695 0.32075C1.24341 0.303954 0.790365 0.365739 0.357826 0.503378V0.503378Z" fill="#178FAC"/>
<path d="M25.8347 4.69583C25.5743 4.93613 25.5371 5.7952 25.5371 11.1995C25.5371 18.3364 25.4063 17.833 27.337 17.833C29.1369 17.833 29.0673 18.1502 29.0673 11.1046C29.0673 4.02299 29.1609 4.39665 27.2434 4.39665C26.4671 4.39786 26.0387 4.49037 25.8347 4.69583Z" fill="#178FAC"/>
</svg>
