<svg width="18" height="18" viewBox="0 0 18 18" fill="none" xmlns="http://www.w3.org/2000/svg">
<path d="M17 2H3C2.44772 2 2 2.44772 2 3C2 3.55228 2.44772 4 3 4H17C17.5523 4 18 3.55228 18 3C18 2.44772 17.5523 2 17 2Z" fill="#8C8C8C"/>
<path d="M17 8H3C2.44772 8 2 8.44772 2 9C2 9.55228 2.44772 10 3 10H17C17.5523 10 18 9.55228 18 9C18 8.44772 17.5523 8 17 8Z" fill="#8C8C8C"/>
<path d="M17 14H3C2.44772 14 2 14.4477 2 15C2 15.5523 2.44772 16 3 16H17C17.5523 16 18 15.5523 18 15C18 14.4477 17.5523 14 17 14Z" fill="#8C8C8C"/>
</svg>
