<svg width="20" height="20" viewBox="0 0 20 20" fill="none" xmlns="http://www.w3.org/2000/svg">
<path d="M17.7847 15.8371L14.668 12.7221C14.5982 12.6525 14.5153 12.5973 14.4242 12.5597C14.333 12.5221 14.2353 12.5029 14.1367 12.5031H13.6274C14.6471 11.1994 15.1309 9.55592 14.9801 7.90794C14.8293 6.25996 14.0552 4.73152 12.8158 3.63426C11.5763 2.53701 9.96475 1.95356 8.30972 2.00289C6.65468 2.05222 5.08079 2.7306 3.90894 3.89973C2.73709 5.06885 2.05554 6.64068 2.00325 8.29471C1.95095 9.94875 2.53185 11.5604 3.62751 12.8012C4.72317 14.0419 6.25107 14.8183 7.89968 14.9719C9.5483 15.1256 11.1935 14.645 12.4998 13.6281V14.1371C12.4996 14.2357 12.5188 14.3333 12.5564 14.4245C12.594 14.5156 12.6492 14.5984 12.7189 14.6681L15.8366 17.7841C15.9061 17.8539 15.9886 17.9092 16.0795 17.947C16.1705 17.9848 16.268 18.0042 16.3664 18.0042C16.4649 18.0042 16.5624 17.9848 16.6533 17.947C16.7442 17.9092 16.8268 17.8539 16.8962 17.7841L17.7807 16.9001C17.9212 16.7589 18 16.5678 18 16.3686C18 16.1695 17.9212 15.9784 17.7807 15.8371H17.7847ZM8.4976 12.5021C7.70604 12.5021 6.93225 12.2675 6.2741 11.828C5.61594 11.3885 5.10297 10.7638 4.80005 10.0329C4.49713 9.30196 4.41788 8.4977 4.5723 7.72177C4.72673 6.94585 5.1079 6.23312 5.66762 5.67371C6.22733 5.1143 6.94046 4.73333 7.71681 4.57899C8.49316 4.42465 9.29787 4.50387 10.0292 4.80662C10.7605 5.10937 11.3855 5.62206 11.8253 6.27985C12.2651 6.93765 12.4998 7.71101 12.4998 8.50213C12.4998 9.563 12.0781 10.5804 11.3276 11.3306C10.577 12.0807 9.55905 12.5021 8.4976 12.5021Z" fill="#8C8C8C"/>
</svg>
