<svg width="25" height="23" viewBox="0 0 25 23" fill="none" xmlns="http://www.w3.org/2000/svg">
<path d="M22.387 13.0445L24.3885 4.03968C24.4239 3.8893 24.425 3.7329 24.3919 3.58202C24.3588 3.43113 24.2922 3.2896 24.1971 3.16784C24.1021 3.04608 23.9809 2.94719 23.8426 2.87846C23.7042 2.80973 23.5522 2.77291 23.3977 2.7707H6.77354L6.38343 0.83121C6.33925 0.598537 6.21563 0.388434 6.03369 0.236819C5.85175 0.0852046 5.6228 0.00149445 5.38597 0L1.04817 0C0.913152 0.00144694 0.779748 0.0294931 0.655581 0.0825349C0.531415 0.135577 0.418921 0.212573 0.324534 0.309123C0.230146 0.405672 0.155716 0.519879 0.105499 0.645215C0.0552813 0.77055 0.0302624 0.904555 0.0318724 1.03957V1.73224C0.0304091 1.86716 0.0555364 2.00105 0.105819 2.12625C0.156102 2.25146 0.230556 2.36554 0.324929 2.46197C0.419302 2.5584 0.531746 2.6353 0.65584 2.68827C0.779933 2.74124 0.913246 2.76925 1.04817 2.7707H4.00617L6.97968 17.6383C6.61524 17.8554 6.31375 18.1638 6.105 18.5331C5.89625 18.9024 5.78746 19.3198 5.78939 19.744C5.78939 20.0553 5.85071 20.3636 5.96984 20.6512C6.08897 20.9388 6.26359 21.2002 6.48372 21.4203C6.70386 21.6404 6.96519 21.815 7.25281 21.9342C7.54042 22.0533 7.84869 22.1146 8.16 22.1146C8.47131 22.1146 8.77958 22.0533 9.06719 21.9342C9.35481 21.815 9.61614 21.6404 9.83627 21.4203C10.0564 21.2002 10.231 20.9388 10.3502 20.6512C10.4693 20.3636 10.5306 20.0553 10.5306 19.744C10.5322 19.4222 10.47 19.1032 10.3477 18.8055C10.2254 18.5078 10.0454 18.2373 9.81799 18.0096H18.692C18.4653 18.2371 18.2856 18.5071 18.1633 18.8042C18.0411 19.1012 17.9785 19.4195 17.9794 19.7407C17.9794 20.052 18.0407 20.3603 18.1598 20.6479C18.2789 20.9355 18.4536 21.1968 18.6737 21.417C18.8938 21.6371 19.1552 21.8117 19.4428 21.9308C19.7304 22.05 20.0387 22.1113 20.35 22.1113C20.6613 22.1113 20.9696 22.05 21.2572 21.9308C21.5448 21.8117 21.8061 21.6371 22.0262 21.417C22.2464 21.1968 22.421 20.9355 22.5401 20.6479C22.6593 20.3603 22.7206 20.052 22.7206 19.7407C22.7229 19.2886 22.599 18.8449 22.3629 18.4593C22.1268 18.0738 21.7878 17.7618 21.384 17.5585L21.6178 16.5078C21.6532 16.3574 21.6543 16.2011 21.6212 16.0502C21.5881 15.8993 21.5215 15.7578 21.4264 15.636C21.3314 15.5142 21.2102 15.4153 21.0719 15.3466C20.9335 15.2779 20.7815 15.2411 20.627 15.2389H9.26495L8.98788 13.8535H21.4006C21.6325 13.8507 21.8565 13.7691 22.0358 13.6221C22.2151 13.475 22.3389 13.2713 22.387 13.0445Z" fill="white"/>
</svg>
